# xmcd
#
# Track frame offsets: 
#        150
#        37762
#        55124
#        71760
#        118585
#        134307
#        155580
#        185294
#        224169
#        288048
#
# Disc length: 4315 seconds
#
# Revision: 1
# Processed by: cddbd v1.5.2PL0 Copyright (c) Steve Scherf et al.
# Submitted via: ExactAudioCopyFreeDBPlugin 1.0
#
DISCID=9010d90a
DTITLE=North Mississippi Allstars - Boulderado:  Live at the Fox, 2008
DYEAR=2008
DGENRE=Blues
TTITLE0=Write Me a Few Little Lines - Drop Down Mama
TTITLE1=Someday Baby
TTITLE2=Shake (Yo Mama)
TTITLE3=Mean Ol' Wind Died Down
TTITLE4=Teasin' Brown
TTITLE5=Some Kind of Wonderful
TTITLE6=Big Mama's Door
TTITLE7=Meet Me in the City
TTITLE8=Mark On the Bus - Hey Bo Diddley
TTITLE9=I'd Love to Be a Hippy
EXTD=
EXTT0=
EXTT1=
EXTT2=
EXTT3=
EXTT4=
EXTT5=
EXTT6=
EXTT7=
EXTT8=
EXTT9=
PLAYORDER=
